<svg id="visual" viewBox="0 0 900 600" width="900" height="600" xmlns="http://www.w3.org/2000/svg" xmlns:xlink="http://www.w3.org/1999/xlink" version="1.1"><path d="M0 399L21.5 395.3C43 391.7 86 384.3 128.8 389C171.7 393.7 214.3 410.3 257.2 410.2C300 410 343 393 385.8 395.2C428.7 397.3 471.3 418.7 514.2 427.5C557 436.3 600 432.7 642.8 423.3C685.7 414 728.3 399 771.2 398C814 397 857 410 878.5 416.5L900 423L900 601L878.5 601C857 601 814 601 771.2 601C728.3 601 685.7 601 642.8 601C600 601 557 601 514.2 601C471.3 601 428.7 601 385.8 601C343 601 300 601 257.2 601C214.3 601 171.7 601 128.8 601C86 601 43 601 21.5 601L0 601Z" fill="#69faf6"></path><path d="M0 437L21.5 437.7C43 438.3 86 439.7 128.8 436.5C171.7 433.3 214.3 425.7 257.2 420.5C300 415.3 343 412.7 385.8 413.2C428.7 413.7 471.3 417.3 514.2 417.7C557 418 600 415 642.8 412.8C685.7 410.7 728.3 409.3 771.2 412.8C814 416.3 857 424.7 878.5 428.8L900 433L900 601L878.5 601C857 601 814 601 771.2 601C728.3 601 685.7 601 642.8 601C600 601 557 601 514.2 601C471.3 601 428.7 601 385.8 601C343 601 300 601 257.2 601C214.3 601 171.7 601 128.8 601C86 601 43 601 21.5 601L0 601Z" fill="#00d2ff"></path><path d="M0 449L21.5 457.8C43 466.7 86 484.3 128.8 494.7C171.7 505 214.3 508 257.2 500.5C300 493 343 475 385.8 465.7C428.7 456.3 471.3 455.7 514.2 461.5C557 467.3 600 479.7 642.8 477.7C685.7 475.7 728.3 459.3 771.2 453.2C814 447 857 451 878.5 453L900 455L900 601L878.5 601C857 601 814 601 771.2 601C728.3 601 685.7 601 642.8 601C600 601 557 601 514.2 601C471.3 601 428.7 601 385.8 601C343 601 300 601 257.2 601C214.3 601 171.7 601 128.8 601C86 601 43 601 21.5 601L0 601Z" fill="#00a2ff"></path><path d="M0 537L21.5 535.7C43 534.3 86 531.7 128.8 523.3C171.7 515 214.3 501 257.2 503C300 505 343 523 385.8 525.2C428.7 527.3 471.3 513.7 514.2 510C557 506.3 600 512.7 642.8 515.5C685.7 518.3 728.3 517.7 771.2 517.5C814 517.3 857 517.7 878.5 517.8L900 518L900 601L878.5 601C857 601 814 601 771.2 601C728.3 601 685.7 601 642.8 601C600 601 557 601 514.2 601C471.3 601 428.7 601 385.8 601C343 601 300 601 257.2 601C214.3 601 171.7 601 128.8 601C86 601 43 601 21.5 601L0 601Z" fill="#006bed"></path><path d="M0 562L21.5 558.3C43 554.7 86 547.3 128.8 549.3C171.7 551.3 214.3 562.7 257.2 567.8C300 573 343 572 385.8 571C428.7 570 471.3 569 514.2 565.8C557 562.7 600 557.3 642.8 553.2C685.7 549 728.3 546 771.2 547C814 548 857 553 878.5 555.5L900 558L900 601L878.5 601C857 601 814 601 771.2 601C728.3 601 685.7 601 642.8 601C600 601 557 601 514.2 601C471.3 601 428.7 601 385.8 601C343 601 300 601 257.2 601C214.3 601 171.7 601 128.8 601C86 601 43 601 21.5 601L0 601Z" fill="#2424c7"></path></svg>